<svg xmlns="http://www.w3.org/2000/svg"
shape-rendering="geometricPrecision"
width="4000" height="4000" viewBox="0 0 1024 1024">
  <metadata>null</metadata>

<path d="
M 157.764 672.504
C 157.982 671.931 157.856 672.22 158.147 671.64
C 159.582 670.149 163.151 670.338 165.087 669.988
C 169.5 669.191 173.566 667.367 175.761 663.224
C 177.731 659.506 177.63 654.862 177.635 650.761
C 177.643 644.008 177.606 637.255 177.598 630.502
C 177.57 608.077 177.365 585.635 177.439 563.218
C 177.46 556.811 177.472 550.403 177.418 543.995
C 177.387 540.319 177.661 536.126 176.078 532.704
C 173.99 528.191 169.026 526.283 164.418 525.543
C 162.579 525.248 160.068 525.66 158.591 524.357
C 158.171 523.225 158.447 521.892 158.924 520.818
C 162.904 519.831 167.904 520.611 172.008 520.61
C 180.842 520.608 189.675 520.563 198.509 520.582
C 215.009 520.619 231.506 520.693 248.006 520.661
C 256.879 520.643 265.898 520.133 274.752 520.611
C 275.92 528.2 275.558 536.039 276.476 543.677
C 276.777 546.182 276.93 548.705 277.163 551.218
C 277.3 552.686 277.7 554.291 277.197 555.72
C 276.002 556.15 274.053 556.198 272.919 555.566
C 271.661 553.7 271.263 551.109 270.4 549.028
C 268.634 544.77 266.081 540.547 262.741 537.338
C 252.391 527.393 238.836 528.286 225.474 528.165
C 220.567 528.12 214.379 527.153 209.704 528.816
C 208.642 536.208 209.282 544.036 209.307 551.503
C 209.351 564.973 209.465 578.454 209.302 591.922
C 212.184 592.608 215.557 592.251 218.505 592.249
C 227.907 592.242 240.515 592.034 246.355 583.289
C 248.394 580.235 249.481 576.857 250.185 573.283
C 250.547 571.444 250.479 569.268 251.244 567.562
C 252.257 566.837 254.749 566.287 255.741 567.295
C 256.185 571.12 255.801 575.149 255.774 578.997
C 255.725 585.83 255.737 592.665 255.747 599.499
C 255.756 605.598 255.785 611.696 255.883 617.794
C 255.925 620.41 256.417 623.145 256.136 625.747
C 255.023 626.174 253.35 625.942 252.18 625.829
C 250.897 624.665 250.981 621.111 250.686 619.44
C 250.038 615.766 248.586 612.202 246.557 609.083
C 240.707 600.095 229.544 600.034 220.003 600.066
C 216.488 600.079 212.963 600.031 209.461 600.348
C 209.386 614.897 209.388 629.454 209.349 644.008
C 209.33 650.743 208.231 659.128 212.402 664.931
C 214.817 668.292 219.025 669.657 222.935 670.273
C 224.781 670.564 228.298 670.358 229.616 671.824
C 230.075 672.738 230.256 674.241 229.655 675.142
C 227.689 675.942 225.075 675.58 223.004 675.569
C 218.958 675.547 214.903 675.588 210.862 675.462
C 199.039 675.093 187.155 675.474 175.331 675.564
C 171.296 675.595 167.264 675.516 163.229 675.519
C 161.466 675.52 159.336 675.934 157.868 674.766
C 157.487 673.963 157.592 673.355 157.764 672.504 Z"
opacity="1" fill="rgb(88,88,88)" fill-rule="evenodd" />
<path d="
M 240.29 476.529
C 240.475 475.95 240.355 476.238 240.66 475.67
C 242.213 473.941 245.553 474.353 247.662 473.827
C 252.826 472.538 257.331 470.25 259.408 465.051
C 261.011 461.037 260.814 456.738 260.834 452.497
C 260.862 446.497 260.864 440.498 260.847 434.497
C 260.791 413.499 260.803 392.485 260.936 371.494
C 260.983 364.084 261.047 356.668 261.059 349.254
C 261.065 345.276 261.465 340.512 259.96 336.747
C 258.032 331.923 253.836 329.124 248.872 328.078
C 246.53 327.585 244.078 327.571 241.816 326.738
C 241.121 325.787 241.281 324.432 241.582 323.357
C 243.052 322.371 245.168 322.492 246.894 322.459
C 250.764 322.385 254.643 322.423 258.508 322.544
C 272.081 322.968 285.717 322.461 299.291 322.451
C 318.827 322.435 338.4 322.622 357.018 329.269
C 367.936 333.166 379.051 339.74 386.691 348.574
C 413.119 379.13 409.04 430.429 379.082 457.174
C 364.648 470.059 345.998 476.519 326.954 478.564
C 313.592 479.999 299.923 479.369 286.498 479.364
C 275.497 479.36 264.496 479.271 253.495 479.26
C 250.591 479.257 247.687 479.28 244.783 479.257
C 243.565 479.247 241.898 479.536 240.843 478.839
C 240.326 478.089 240.278 477.419 240.29 476.529 Z
M 292.995 332.121
C 292.117 343.616 293.046 355.467 293.074 366.996
C 293.128 388.915 293 410.827 293.039 432.738
C 293.055 441.657 293.061 450.577 293.083 459.496
C 293.091 462.79 292.237 468.079 293.884 471.033
C 302.075 473.158 311.541 472.699 319.849 471.345
C 325.237 470.468 330.608 469.231 335.551 466.837
C 339.054 465.141 342.388 462.969 345.419 460.533
C 363.194 446.245 368.396 423.431 368.412 401.647
C 368.423 387.367 366.109 372.31 359.218 359.627
C 356.884 355.331 354.214 351.284 350.903 347.67
C 340.432 336.242 325.73 330.926 310.572 329.8
C 305.153 329.398 298.384 328.534 293.172 330.334
C 293.128 330.931 293.09 331.53 292.995 332.121 Z"
opacity="1" fill="rgb(88,89,88)" fill-rule="evenodd" />
<path d="
M 285.33 673.031
C 285.382 672.887 285.435 672.743 285.488 672.6
C 286.749 670.501 290.552 670.793 292.697 670.199
C 295.64 669.385 297.679 667.206 298.902 664.481
C 299.866 662.333 299.763 659.804 299.768 657.505
C 299.776 654.004 299.766 650.504 299.756 647.004
C 299.716 634.03 299.667 621.056 299.739 608.082
C 299.76 604.157 299.822 600.229 299.784 596.304
C 299.762 593.992 299.894 591.639 298.71 589.565
C 297.358 587.197 294.752 585.638 292.092 585.245
C 290.355 584.988 288.345 585.297 286.746 584.483
C 285.901 583.559 286.137 582.024 286.514 580.923
C 288.151 578.81 293.225 578.629 295.717 577.943
C 303.696 575.746 311.544 573.097 319.461 570.694
C 321.812 569.98 324.142 569.395 326.53 568.833
C 327.347 568.641 328.555 568.163 329.229 568.804
C 329.983 571.026 329.442 574.169 329.434 576.509
C 329.415 582.173 329.338 587.837 329.331 593.502
C 329.308 612.091 329.449 630.681 329.43 649.27
C 329.424 655.066 328.383 662.93 332.727 667.509
C 334.447 669.322 336.793 670.095 339.179 670.599
C 340.396 670.856 341.898 670.798 342.992 671.435
C 344.398 672.254 345.027 674.436 343.405 675.414
C 339.17 676.508 333.862 675.693 329.499 675.699
C 320.164 675.713 310.832 675.655 301.497 675.694
C 297.93 675.709 294.364 675.717 290.797 675.736
C 289.206 675.744 287.313 676.055 285.84 675.336
C 285.234 674.637 285.236 673.92 285.33 673.031 Z"
opacity="1" fill="rgb(87,88,87)" fill-rule="evenodd" />
<path d="
M 297.434 535.1
C 297.603 532.698 298.368 530.338 299.556 528.254
C 302.093 523.799 306.453 520.352 311.574 519.471
C 322.353 517.618 332.484 526.596 331.762 537.456
C 331.044 548.247 319.433 555.522 309.264 552.233
C 304.085 550.558 300.363 546.769 298.475 541.745
C 297.705 539.695 297.28 537.298 297.434 535.1 Z"
opacity="1" fill="rgb(236,194,149)" fill-rule="evenodd" />
<path d="
M 355.921 616.599
C 358.152 597.32 371.428 580.004 389.131 572.284
C 397.642 568.572 407.042 567.299 416.265 567.735
C 427.66 568.273 441.03 572.545 448.199 581.998
C 450.143 584.561 451.706 587.56 451.127 590.877
C 450.024 597.193 441.703 602.368 435.841 603.169
C 433.966 603.425 431.895 603.641 430.107 602.866
C 427.081 601.557 426.63 597.449 425.711 594.677
C 423.919 589.27 421.984 583.551 417.953 579.345
C 411.519 572.631 401.025 574.69 394.923 580.783
C 389.525 586.171 386.708 594.544 385.857 601.993
C 385.476 605.331 385.489 608.665 385.571 612.007
C 386.036 630.835 394.068 653.669 413.717 659.889
C 422.646 662.715 432.675 660.948 440.057 655.176
C 441.913 653.724 443.676 652.062 445.052 650.142
C 446.116 648.655 447.045 646.655 448.555 645.569
C 449.936 644.577 452.464 645.344 452.721 647.174
C 452.873 648.259 451.992 649.467 451.533 650.385
C 450.057 653.334 448.262 656.086 446.306 658.734
C 437.479 670.69 422.859 678.185 408.078 678.632
C 403.676 678.765 399.163 678.212 394.914 677.076
C 368.296 669.963 352.825 643.363 355.921 616.599 Z"
opacity="1" fill="rgb(89,89,89)" fill-rule="evenodd" />
<path d="
M 419.929 419.091
C 420.874 414.321 421.596 409.597 423.433 405.051
C 429.115 390.993 440.176 379.749 454.251 374.13
C 459.847 371.896 467.396 369.729 473.463 370.939
C 472.983 371.734 471.461 372.048 470.675 372.487
C 468.978 373.434 467.34 374.719 465.788 375.89
C 461.952 378.782 459.363 382.676 457.426 387.036
C 453.844 395.092 452.659 404.36 452.176 413.086
C 451.602 423.448 451.912 433.848 453.506 444.118
C 454.612 451.247 456.155 458.493 459.538 464.923
C 461.528 468.705 463.853 472.492 467.015 475.418
C 468.983 477.24 471.706 477.977 473.215 480.223
C 473.612 480.654 472.826 480.751 472.471 480.79
C 464.915 482.467 455.535 478.812 448.965 475.335
C 428.484 464.496 417.271 442.038 419.929 419.091 Z"
opacity="1" fill="rgb(154,200,202)" fill-rule="evenodd" />
<path d="
M 462.336 575.533
C 462.545 574.975 462.417 575.244 462.72 574.728
C 465.704 571.317 470.906 569.098 474.606 566.498
C 481.566 561.608 488.001 555.787 493.794 549.565
C 496.313 546.86 498.729 543.948 500.684 540.803
C 501.583 539.357 502.358 537.364 504.099 536.798
C 504.786 536.811 505.301 536.845 505.845 537.277
C 506.315 540.471 505.963 543.789 505.954 547.008
C 505.933 554.803 505.483 562.679 505.966 570.465
C 512.359 570.33 518.776 570.505 525.175 570.561
C 527.836 570.585 531.568 569.946 534.026 571.057
C 534.159 573.199 534.698 576.319 533.815 578.324
C 527.066 578.947 520.28 578.763 513.498 578.827
C 511.632 578.845 507.258 578.087 505.85 579.365
C 505.543 597.571 505.704 615.79 505.637 633.998
C 505.621 638.454 505.612 642.914 505.697 647.369
C 505.765 650.929 505.946 654.748 507.933 657.831
C 511.889 663.967 519.634 665.213 525.913 662.002
C 527.976 660.947 529.567 659.501 531.14 657.819
C 532.04 656.859 532.869 655.537 534.064 654.922
C 535.301 654.286 537.582 654.836 537.638 656.501
C 537.692 658.108 536.566 659.633 535.724 660.909
C 533.452 664.352 530.629 667.423 527.433 670.019
C 514.641 680.408 491.512 683.108 480.947 668.048
C 474.725 659.18 475.91 648.294 475.92 637.997
C 475.932 625.33 475.922 612.664 475.929 599.997
C 475.933 593.093 476.397 585.957 475.77 579.081
C 471.265 578.752 466.681 579.407 462.195 578.748
C 462.127 577.66 462.149 576.609 462.336 575.533 Z"
opacity="1" fill="rgb(87,88,88)" fill-rule="evenodd" />
<path d="
M 475.032 480.441
C 486.342 477.763 492.548 466.619 494.955 456.014
C 498.19 441.754 498.355 427.141 496.538 412.667
C 495.586 405.074 494.226 397.333 491.263 390.238
C 489.404 385.787 487.16 381.227 483.748 377.746
C 481.864 375.825 477.887 373.938 476.816 371.458
C 479.938 370.35 484.03 371.032 487.202 371.594
C 496.177 373.184 504.128 377.264 511.092 383.098
C 535.796 403.791 536.442 442.728 514.127 465.401
C 506.42 473.231 496.266 478.767 485.364 480.378
C 482.707 480.77 480.052 480.896 477.369 480.951
C 476.662 480.965 475.234 481.297 475.032 480.441 Z"
opacity="1" fill="rgb(237,193,149)" fill-rule="evenodd" />
<path d="
M 545.331 671.822
C 546.922 670.852 549.036 670.912 550.83 670.518
C 554.04 669.812 556.478 668.083 557.975 665.127
C 560.573 660 559.308 652.408 559.28 646.843
C 559.212 633.729 559.323 620.614 559.318 607.5
C 559.317 603.699 559.311 599.898 559.348 596.097
C 559.372 593.684 559.535 591.219 558.201 589.09
C 556.624 586.571 553.611 585.248 550.736 585.024
C 549.375 584.917 547.549 585.348 546.35 584.604
C 545.669 583.697 545.538 582.495 545.862 581.422
C 546.794 580.317 548.261 580.056 549.608 579.743
C 551.995 579.187 554.37 578.587 556.72 577.886
C 564.318 575.621 571.793 572.828 579.463 570.818
C 582.517 570.017 585.874 568.683 589.069 568.772
C 589.477 571.268 589.22 573.968 589.234 576.502
C 589.263 581.668 589.189 586.834 589.189 592
C 589.189 607.5 589.187 622.999 589.172 638.499
C 589.167 644.177 589.123 649.856 589.152 655.535
C 589.171 659.283 589.047 663.259 591.305 666.473
C 592.936 668.794 595.511 670.305 598.266 670.875
C 599.999 671.234 602.078 670.941 603.578 671.956
C 604.199 672.826 604.243 674.674 603.382 675.392
C 601.812 676.121 599.678 675.763 597.998 675.743
C 594.664 675.705 591.33 675.723 587.996 675.719
C 578.329 675.707 568.662 675.716 558.995 675.728
C 554.861 675.733 549.53 676.669 545.578 675.385
C 544.914 674.525 545.118 672.823 545.331 671.822 Z"
opacity="1" fill="rgb(88,89,88)" fill-rule="evenodd" />
<path d="
M 547.926 423.109
C 548.787 417.284 549.612 411.526 551.938 406.047
C 560.161 386.677 579.22 372.283 600.37 370.978
C 611.976 370.262 624.126 372.712 633.664 379.592
C 637.531 382.381 641.664 386.483 642.278 391.454
C 643.203 398.954 635.442 404.637 628.966 406.33
C 626.586 406.953 623.603 407.54 621.384 406.142
C 618.2 404.137 617.683 399.155 616.52 395.89
C 613.953 388.689 610.343 380.08 601.866 378.649
C 600.256 378.377 598.619 378.447 597.007 378.659
C 594.616 378.973 591.951 380.018 589.984 381.416
C 582.292 386.879 579.155 396.387 578.064 405.368
C 575.826 423.778 580.387 445.819 595.695 457.791
C 604.409 464.607 616.655 466.901 626.804 461.906
C 630.204 460.232 633.45 457.692 635.896 454.8
C 637.242 453.208 638.143 451.009 639.761 449.697
C 641.367 448.393 642.949 448.725 644.24 450.261
C 644.527 451.51 643.804 452.372 643.248 453.422
C 641.851 456.063 640.335 458.605 638.544 461.003
C 630.934 471.189 618.88 479.712 605.944 481.022
C 597.868 481.841 589.948 481.332 582.252 478.623
C 559.485 470.61 546.054 446.685 547.926 423.109 Z"
opacity="1" fill="rgb(89,89,89)" fill-rule="evenodd" />
<path d="
M 557.423 533.589
C 560.008 518.766 580.04 514.029 588.8 526.416
C 589.982 528.087 590.917 530.033 591.38 532.032
C 591.942 534.456 591.98 536.97 591.557 539.419
C 588.536 556.905 560.818 556.999 557.615 539.57
C 557.255 537.61 557.078 535.566 557.423 533.589 Z"
opacity="1" fill="rgb(90,90,89)" fill-rule="evenodd" />
<path d="
M 614.929 617.099
C 616.945 597.046 629.383 578.932 648.171 571.097
C 652.918 569.117 657.803 568.086 662.888 567.497
C 664.084 567.359 665.283 567.234 666.488 567.209
C 666.769 567.203 667.765 567.067 667.962 567.318
C 668.344 567.804 666.834 568.321 666.626 568.445
C 665.087 569.363 663.491 570.246 662.062 571.332
C 658.173 574.289 655.387 577.862 653.274 582.26
C 647.138 595.034 647.242 610.893 647.719 624.754
C 648.177 638.081 649.847 653.157 656.889 664.789
C 659.182 668.576 661.82 671.854 665.786 673.949
C 667.405 674.804 669.258 675.581 671.058 675.928
C 671.329 675.98 672.819 676.135 672.356 676.763
C 672.103 677.106 671.313 676.901 670.969 676.922
C 669.476 677.013 668.102 677.698 666.629 677.936
C 660.087 678.991 652.241 676.2 646.355 673.578
C 624.979 664.058 612.62 640.049 614.929 617.099 Z"
opacity="1" fill="rgb(154,199,202)" fill-rule="evenodd" />
<path d="
M 646.849 530.554
C 648.777 525.161 649.971 519.291 651.46 513.752
C 653.851 514.34 656.227 515.956 658.302 517.247
C 660.427 518.57 662.808 519.639 665.074 520.698
C 673.414 524.597 682.085 527.491 691.103 529.365
C 707.876 532.849 726.36 531.572 742.208 524.964
C 752.3 520.756 761.563 514.229 769.425 506.667
C 776.724 499.646 782.217 491.571 787.538 483.064
C 789.029 482.605 790.859 482.75 792.418 482.548
C 795.707 482.121 798.956 481.409 802.199 480.731
C 804.135 480.327 807.379 478.983 809.294 479.351
C 808.435 481.476 806.603 483.566 805.399 485.542
C 801.539 491.877 797.22 497.788 792.461 503.471
C 779.013 519.534 761.173 533.035 741.289 540.123
C 724.905 545.964 707.321 547.848 690.048 546.078
C 678.898 544.936 667.836 541.229 657.608 536.789
C 654.026 535.234 650.527 532.709 646.869 531.473
C 646.607 530.975 646.676 531.273 646.849 530.554 Z"
opacity="1" fill="rgb(154,200,203)" fill-rule="evenodd" />
<path d="
M 654.44 377.114
C 654.537 376.549 654.599 375.982 654.702 375.418
C 655.551 374.59 656.889 374.774 658.002 374.756
C 660.598 374.715 663.194 374.764 665.789 374.731
C 676.261 374.597 686.677 373.679 697.115 373.069
C 698.516 374.311 697.97 376.833 697.964 378.505
C 697.944 383.506 697.92 388.507 697.932 393.509
C 697.969 410.038 697.922 426.554 697.946 443.082
C 697.955 449.886 698.452 458.771 704.783 462.875
C 712.207 467.688 721.906 465.955 728.695 460.902
C 730.456 459.591 733.441 457.463 734.147 455.288
C 734.663 453.696 734.333 451.653 734.332 450
C 734.33 446.5 734.314 443.001 734.308 439.501
C 734.29 427.835 734.267 416.168 734.257 404.502
C 734.253 400.672 734.339 396.836 734.249 393.007
C 734.199 390.929 734.231 388.521 733.223 386.64
C 732.032 384.42 729.924 382.206 727.504 381.367
C 725.489 380.67 723.288 380.616 721.312 379.818
C 720.308 378.844 720.627 376.908 721.511 375.933
C 725.105 375.163 729.205 375.574 732.887 375.386
C 739.544 375.047 746.221 374.395 752.825 373.493
C 755.438 373.136 758.032 372.636 760.653 372.338
C 761.632 372.227 763.065 371.851 763.953 372.353
C 764.669 394.332 763.883 416.493 763.923 438.507
C 763.933 444.008 763.917 449.508 763.937 455.008
C 763.95 458.563 763.74 462.405 765.594 465.571
C 766.966 467.914 769.091 469.384 771.743 469.907
C 773.585 470.269 775.834 469.821 777.28 471.207
C 777.683 472.056 777.747 474.21 776.859 474.785
C 766.843 476.29 756.83 477.977 746.794 479.347
C 744.022 479.725 741.274 480.131 738.487 480.377
C 737.134 480.496 735.712 480.896 734.392 480.416
C 733.763 478.589 734.105 476.4 734.162 474.494
C 734.265 471.072 734.408 467.612 734.22 464.195
C 731.805 465.103 729.577 468.172 727.542 469.799
C 721.909 474.302 715.4 478.97 708.27 480.648
C 703.938 481.667 699.291 482.046 694.873 481.486
C 682.055 479.863 672.56 472.088 669.334 459.412
C 667.687 452.939 668.26 446.117 668.272 439.502
C 668.29 428.835 668.316 418.168 668.316 407.5
C 668.316 402.922 668.431 398.342 668.387 393.764
C 668.363 391.322 668.564 388.505 667.555 386.223
C 666.186 383.127 663.065 380.972 659.868 380.143
C 658.249 379.722 656.361 379.718 654.888 378.893
C 654.421 378.332 654.426 377.827 654.44 377.114 Z"
opacity="1" fill="rgb(88,88,88)" fill-rule="evenodd" />
<path d="
M 672.339 567.88
C 675.963 566.283 680.917 567.879 684.575 568.632
C 698.241 571.441 710.24 580.495 717.488 592.298
C 730.855 614.068 728.429 644.407 709.607 662.481
C 704.908 666.993 699.718 670.694 693.79 673.423
C 687.747 676.204 681.67 677.803 675.007 677.815
C 674.07 677.817 673.158 678.17 672.226 678.086
C 672.732 676.532 674.261 675.986 675.625 675.287
C 677.507 674.324 679.22 673.073 680.755 671.621
C 685.088 667.524 687.524 661.811 689.292 656.226
C 693.773 642.066 693.996 626.121 692.428 611.501
C 691.451 602.385 689.784 593.012 686.041 584.584
C 684.24 580.529 681.577 576.404 678.361 573.33
C 676.665 571.709 672.932 570.146 672.339 567.88 Z"
opacity="1" fill="rgb(237,193,149)" fill-rule="evenodd" />
<path d="
M 738.947 673.116
C 739.029 672.442 738.976 672.819 739.12 671.987
C 740.768 670.786 742.867 670.883 744.79 670.427
C 747.652 669.748 750.191 667.999 751.515 665.323
C 754.033 660.232 752.907 653.022 752.898 647.496
C 752.876 634.675 752.664 621.848 752.832 609.028
C 752.883 605.108 752.928 601.191 752.923 597.27
C 752.919 594.763 753.019 592.173 751.752 589.915
C 750.259 587.253 747.767 585.667 744.813 585.086
C 743.066 584.743 741.009 585.248 739.588 583.971
C 739.09 582.855 739.401 581.522 740.179 580.624
C 741.343 579.74 742.928 579.656 744.321 579.365
C 746.808 578.844 749.306 578.338 751.734 577.577
C 761.543 574.503 771.757 569.404 782.105 568.751
C 783.215 572.402 782.75 576.699 782.757 580.497
C 782.761 582.077 782.434 584.111 783.004 585.589
C 789.712 580.54 795.603 575.059 803.407 571.594
C 808.371 569.39 813.738 567.906 819.194 567.871
C 832.195 567.788 844.354 574.671 848.139 587.631
C 850.183 594.631 849.424 601.911 849.467 609.091
C 849.539 621.222 849.579 633.364 849.609 645.501
C 849.619 649.455 849.611 653.411 849.655 657.364
C 849.681 659.796 849.541 662.534 850.412 664.843
C 851.516 667.768 854.118 670.021 857.165 670.686
C 858.937 671.073 861.349 670.735 862.86 671.795
C 863.519 672.785 863.774 674.57 862.756 675.429
C 858.865 676.7 853.486 675.728 849.415 675.709
C 840.275 675.665 831.137 675.687 821.998 675.698
C 818.664 675.702 815.33 675.74 811.996 675.791
C 810.208 675.818 808.314 676.074 806.612 675.423
C 805.983 674.534 806.132 673.261 806.485 672.283
C 808.024 671.036 810.174 671.282 812.023 670.867
C 815.395 670.11 817.757 668.374 819.084 665.112
C 820.107 662.595 819.919 659.657 819.925 656.994
C 819.934 652.661 819.935 648.328 819.935 643.995
C 819.935 634.003 819.918 624.012 819.917 614.021
C 819.916 608.183 820.506 601.855 819.116 596.134
C 817.295 588.64 810.58 583.909 803.067 583.657
C 795.042 583.389 786.672 587.516 783.142 595.097
C 782.456 596.569 782.881 598.903 782.858 600.503
C 782.797 604.668 782.796 608.833 782.786 612.999
C 782.756 624.464 782.821 635.931 782.726 647.396
C 782.678 653.186 781.669 660.196 784.081 665.628
C 785.384 668.562 788.325 670.344 791.403 670.931
C 792.908 671.218 794.854 670.935 796.085 671.949
C 796.561 672.748 796.863 674.833 795.943 675.388
C 794.382 675.909 792.62 675.723 791.001 675.71
C 788.167 675.687 785.333 675.702 782.499 675.703
C 772.997 675.708 763.498 675.648 753.997 675.695
C 750.663 675.711 747.33 675.761 743.996 675.791
C 742.635 675.803 740.727 676.172 739.508 675.476
C 739.176 674.71 738.993 673.946 738.947 673.116 Z"
opacity="1" fill="rgb(88,89,88)" fill-rule="evenodd" />
<path d="
M 791.384 476.087
C 793.081 471.537 795.343 467.214 797.052 462.656
C 799.076 457.258 800.665 451.48 802.066 445.89
C 805.249 433.186 806.695 420.139 810.518 407.586
C 814.005 396.136 820.665 384.888 831.014 378.451
C 844.682 369.95 863.624 373.896 871.051 388.634
C 878.076 402.577 874.064 419.301 866.588 432.159
C 855.255 451.649 835.664 464.937 814.563 471.726
C 807.128 474.118 798.982 476.212 791.153 476.703
C 791.23 476.498 791.307 476.293 791.384 476.087 Z"
opacity="1" fill="rgb(236,193,150)" fill-rule="evenodd" />

</svg>